PathFileType	4	(X/Y/Z)	/Users/itak/Documents/Research/Walk-IL/dataset/trc/00237_00009.trc
DataRate	CameraRate	NumFrames	NumMarkers	Units	OrigDataRate	OrigDataStartFrame	OrigNumFrames
100.000000	100.000000	4	53	mm	100.000000	592	948
Frame#	Time	RPSI			LPSI			L3			STRN			T10			C7			CLAV			RBAK			LBAK			LSHO			LUPA			LAEL			LAOL			LWTS			LWPS			LFRA			LIFD			LHPS			LHTS			RSHO			RUPA			RAEL			RAOL			RWTS			RWPS			RFRA			RIFD			RHTS			RHPS			RBHD			LFHD			RFHD			LBHD			LHIP			RHIP			RASI			LASI			LKNE			LTHI			LANK			LTIP			LTOE			LMT1			LMT5			LHEE			RKNE			RTHI			RANK			RTIP			RTOE			RMT1			RMT5			RHEE			
		X1	Y1	Z1	X2	Y2	Z2	X3	Y3	Z3	X4	Y4	Z4	X5	Y5	Z5	X6	Y6	Z6	X7	Y7	Z7	X8	Y8	Z8	X9	Y9	Z9	X10	Y10	Z10	X11	Y11	Z11	X12	Y12	Z12	X13	Y13	Z13	X14	Y14	Z14	X15	Y15	Z15	X16	Y16	Z16	X17	Y17	Z17	X18	Y18	Z18	X19	Y19	Z19	X20	Y20	Z20	X21	Y21	Z21	X22	Y22	Z22	X23	Y23	Z23	X24	Y24	Z24	X25	Y25	Z25	X26	Y26	Z26	X27	Y27	Z27	X28	Y28	Z28	X29	Y29	Z29	X30	Y30	Z30	X31	Y31	Z31	X32	Y32	Z32	X33	Y33	Z33	X34	Y34	Z34	X35	Y35	Z35	X36	Y36	Z36	X37	Y37	Z37	X38	Y38	Z38	X39	Y39	Z39	X40	Y40	Z40	X41	Y41	Z41	X42	Y42	Z42	X43	Y43	Z43	X44	Y44	Z44	X45	Y45	Z45	X46	Y46	Z46	X47	Y47	Z47	X48	Y48	Z48	X49	Y49	Z49	X50	Y50	Z50	X51	Y51	Z51	X52	Y52	Z52	X53	Y53	Z53	

593	5.92	425.7937622070312	1013.848815917969	-628.570556640625	517.1641235351562	1028.706787109375	-704.0897216796875	484.1850280761719	1110.73681640625	-679.7574462890625	652.2894287109375	1276.384033203125	-478.915283203125	487.2261657714844	1236.634033203125	-673.8016967773438	543.4833984375	1493.03076171875	-615.6422119140625	640.1511840820312	1395.515991210938	-491.6382446289062	431.59521484375	1361.614013671875	-637.399169921875	616.269287109375	1455.949829101562	-703.1110229492188	713.8052368164062	1449.7958984375	-665.6051635742188	762.1099243164062	1336.038452148438	-736.0504150390625	813.2140502929688	1128.99658203125	-731.267578125	738.5478515625	1101.216918945312	-767.2720947265625	830.7333984375	930.626953125	-572.22021484375	890.2801513671875	905.0676879882812	-626.35986328125	846.876708984375	1030.056884765625	-695.8602905273438	862.1964721679688	747.7181396484375	-537.8165893554688	906.0526733398438	826.1982421875	-586.5510864257812	877.8897705078125	843.8471069335938	-526.3400268554688	446.0625	1449.999389648438	-466.6411743164062	377.5686950683594	1387.72998046875	-444.9923095703125	313.2974853515625	1111.409301757812	-456.5351867675781	362.6139831542969	1106.028198242188	-537.9860229492188	426.8773803710938	893.2811889648438	-380.3115844726562	342.7032470703125	880.1064453125	-384.5198364257812	316.7145690917969	1041.9365234375	-430.2251281738281	432.8487243652344	696.7986450195312	-378.0120849609375	433.5325012207031	768.5744018554688	-345.4402770996094	362.8323669433594	771.6659545898438	-359.3302917480469	555.76171875	1657.039794921875	-533.000244140625	739.5528564453125	1644.214111328125	-398.6732788085938	653.6602172851562	1642.558227539062	-349.2770385742188	694.9881591796875	1652.84521484375	-557.0010986328125	689.1159057617188	972.252685546875	-726.3780517578125	413.0283813476562	970.458984375	-485.3811950683594	503.8474731445312	1015.854431152344	-438.1056213378906	721.702880859375	1007.550476074219	-616.4862670898438	628.1189575195312	493.3848571777344	-729.79345703125	663.7962036132812	635.3905639648438	-730.1463012695312	497.6887817382812	30.70092010498047	-819.23193359375	564.7584838867188	279.2265319824219	-790.2457885742188	635.8073120117188	35.96902465820312	-645.7357788085938	555.46435546875	35.23197555541992	-655.9528198242188	612.6634521484375	29.30844688415527	-759.5423583984375	419.9190979003906	48.91767501831055	-819.0938110351562	569.9300537109375	507.1104431152344	-384.2551574707031	470.00634765625	762.227294921875	-409.2831420898438	698.8258666992188	32.65964508056641	-342.019287109375	616.1845092773438	401.8304138183594	-361.9983215332031	790.3201293945312	123.7021408081055	-176.0040588378906	817.70703125	103.5061950683594	-237.3721618652344	705.6748657226562	65.89063262939453	-235.8819580078125	733.1988525390625	22.14651679992676	-417.4765930175781	
594	5.93	430.8391723632812	1012.254638671875	-623.2208251953125	522.5518188476562	1027.229614257812	-698.3107299804688	489.2830505371094	1109.127563476562	-674.279296875	655.8502807617188	1275.098022460938	-472.5483703613281	492.10986328125	1235.044067382812	-668.3378295898438	547.45947265625	1491.557006835938	-609.9269409179688	643.5110473632812	1394.205322265625	-485.3146362304688	436.0419006347656	1359.863403320312	-632.4992065429688	620.9188842773438	1454.64990234375	-696.9197998046875	718.26513671875	1448.583862304688	-658.8399658203125	766.8738403320312	1334.767333984375	-729.0866088867188	817.4347534179688	1127.539672851562	-724.200439453125	742.9019165039062	1100.0908203125	-760.726806640625	833.3873291015625	928.4335327148438	-565.9515380859375	893.12939453125	902.8145751953125	-619.8137817382812	850.6121215820312	1028.379028320312	-689.0225219726562	863.9479370117188	744.9859619140625	-531.88720703125	908.3516845703125	823.712646484375	-580.3109130859375	879.7635498046875	841.0294799804688	-520.1116943359375	449.0839538574219	1448.192260742188	-461.5947265625	380.5213928222656	1385.837890625	-440.4981079101562	316.4197998046875	1109.5673828125	-453.0007019042969	365.2425537109375	1104.273681640625	-534.1890258789062	428.4927978515625	890.8872680664062	-376.1098327636719	344.4374389648438	877.9379272460938	-381.3883361816406	319.3966979980469	1040.041381835938	-426.7925109863281	433.852783203125	694.3444213867188	-374.86083984375	434.2483520507812	765.7523803710938	-341.933349609375	363.8423767089844	769.3138427734375	-356.6117248535156	558.8290405273438	1655.634643554688	-527.1934814453125	741.7125244140625	1643.178466796875	-391.6290588378906	655.2553100585938	1641.327270507812	-342.9710388183594	698.2715454101562	1651.723999023438	-550.2760620117188	694.5637817382812	970.9384765625	-719.98876953125	417.5900268554688	968.79638671875	-480.089599609375	508.0880737304688	1014.231079101562	-432.4681701660156	726.6239624023438	1006.104736328125	-609.8473510742188	631.9546508789062	492.4711608886719	-725.3713989257812	668.310546875	634.349365234375	-724.9386596679688	497.9119567871094	31.45611000061035	-819.1270141601562	567.0158081054688	279.276123046875	-787.8880004882812	635.8416137695312	35.92202377319336	-645.7029418945312	555.5036010742188	35.26292419433594	-655.9453125	612.6603393554688	29.30658340454102	-759.53955078125	420.1220397949219	50.03792572021484	-819.0831298828125	573.9403686523438	505.4986572265625	-379.19775390625	474.3222351074219	760.4453735351562	-404.0950622558594	704.7935180664062	31.94823265075684	-333.3048095703125	620.1672973632812	400.5863037109375	-356.1094360351562	792.0663452148438	124.2042922973633	-165.6284027099609	820.8304443359375	103.9367752075195	-226.3130187988281	708.9327392578125	65.79273223876953	-227.1632232666016	740.5770263671875	21.43787574768066	-408.0479431152344	
595	5.94	435.8948364257812	1010.660339355469	-617.674560546875	527.9370727539062	1025.752685546875	-692.3446655273438	494.3661499023438	1107.512939453125	-668.6063232421875	659.4072265625	1273.84375	-466.0538330078125	496.9458923339844	1233.454223632812	-662.6951904296875	551.3539428710938	1490.088989257812	-604.0761108398438	646.83154296875	1392.922607421875	-478.8667297363281	440.4411315917969	1358.100463867188	-627.4197998046875	625.4818115234375	1453.35693359375	-690.6002807617188	722.6443481445312	1447.394287109375	-651.9808959960938	771.513916015625	1333.497314453125	-722.0397338867188	821.5090942382812	1126.091796875	-717.1132202148438	747.0943603515625	1099.007934570312	-754.13818359375	835.969970703125	926.16357421875	-559.8283081054688	895.8623046875	900.5048828125	-613.4550170898438	854.21923828125	1026.709106445312	-682.2597045898438	865.5972290039062	742.0726928710938	-526.1672973632812	910.5362548828125	821.1211547851562	-574.3306884765625	881.53515625	838.0305786132812	-514.0929565429688	452.0840454101562	1446.395629882812	-456.396240234375	383.4645690917969	1383.954223632812	-435.8388977050781	319.5481567382812	1107.734375	-449.3141174316406	367.8763732910156	1102.533447265625	-530.2438354492188	430.1982421875	888.59619140625	-371.715087890625	346.2967224121094	875.8087768554688	-378.0799865722656	322.1097106933594	1038.15869140625	-423.2001037597656	435.1798400878906	692.0216064453125	-371.3956604003906	435.1710205078125	763.123046875	-338.2439880371094	365.0901489257812	767.0255126953125	-353.6439208984375	561.8186645507812	1654.242797851562	-521.2896728515625	743.785888671875	1642.201782226562	-384.4944763183594	656.7509765625	1640.147094726562	-336.5937805175781	701.4669189453125	1650.639282226562	-543.4581909179688	700.0299072265625	969.657958984375	-713.4698486328125	422.1951293945312	967.1456909179688	-474.5997009277344	512.40283203125	1012.609924316406	-426.63623046875	731.6177368164062	1004.72021484375	-603.0946655273438	635.8993530273438	491.5926208496094	-720.8192138671875	672.8908081054688	633.337646484375	-719.6018676757812	498.2080688476562	32.3281364440918	-819.0269165039062	569.355712890625	279.403564453125	-785.4613037109375	635.8717041015625	35.87066650390625	-645.671875	555.5571899414062	35.31522369384766	-655.949951171875	612.6549072265625	29.29788970947266	-759.5421752929688	420.4047546386719	51.34096908569336	-819.159912109375	577.9260864257812	503.937255859375	-373.8189086914062	478.7467041015625	758.7569580078125	-398.6816711425781	709.6569213867188	30.89999580383301	-325.7706604003906	624.0026245117188	399.1572570800781	-350.1437072753906	793.2922973632812	123.6901931762695	-156.4948120117188	823.2610473632812	103.4393081665039	-216.5540771484375	711.4650268554688	65.02678680419922	-219.6013946533203	746.7465209960938	20.51510047912598	-399.8591003417969	
596	5.95	440.9687194824219	1009.080017089844	-611.9348754882812	533.3319702148438	1024.28564453125	-686.182861328125	499.4523010253906	1105.901245117188	-662.7351684570312	662.9636840820312	1272.6337890625	-459.4224243164062	501.7439575195312	1231.869873046875	-656.8731079101562	555.169677734375	1488.634399414062	-598.08642578125	650.1187133789062	1391.680053710938	-472.2938537597656	444.7972106933594	1356.3330078125	-622.1605834960938	629.9617919921875	1452.078735351562	-684.1526489257812	726.9421997070312	1446.233520507812	-645.0235595703125	776.0421752929688	1332.240112304688	-714.9113159179688	825.4426879882812	1124.666015625	-710.0211181640625	751.122314453125	1097.978271484375	-747.5101928710938	838.49365234375	923.8338012695312	-553.8497314453125	898.4805908203125	898.1500854492188	-607.2900390625	857.6918334960938	1025.0458984375	-675.5763549804688	867.1702270507812	739.0209350585938	-520.6651000976562	912.6187133789062	818.449462890625	-568.6161499023438	883.2310791015625	834.8941040039062	-508.2924194335938	455.0620727539062	1444.61962890625	-451.0460815429688	386.3960266113281	1382.085693359375	-431.0138244628906	322.6881103515625	1105.912109375	-445.4620361328125	370.6611328125	1100.80810546875	-526.1116943359375	432.025634765625	886.4117431640625	-367.1156616210938	348.2849731445312	873.7259521484375	-374.580322265625	324.8604736328125	1036.291015625	-419.4371337890625	436.8337707519531	689.825927734375	-367.6109619140625	436.3121337890625	760.68701171875	-334.3587951660156	366.5908203125	764.8053588867188	-350.4002990722656	564.7374267578125	1652.871948242188	-515.2918090820312	745.7735595703125	1641.29052734375	-377.2654113769531	658.1721801757812	1639.02734375	-330.1322021484375	704.5775756835938	1649.600219726562	-536.5478515625	705.5181884765625	968.4006958007812	-706.797119140625	426.8463134765625	965.5232543945312	-468.91552734375	516.7860717773438	1011.001525878906	-420.6028747558594	736.7086181640625	1003.416076660156	-596.2169189453125	639.9443969726562	490.7671813964844	-716.14306640625	677.5130615234375	632.35400390625	-714.129150390625	498.5885314941406	33.33829879760742	-818.9326782226562	571.7482299804688	279.5982360839844	-782.9478759765625	635.9002685546875	35.81472778320312	-645.6412963867188	555.6259765625	35.38842391967773	-655.9642944335938	612.6482543945312	29.28444290161133	-759.5487060546875	420.7733154296875	52.82403945922852	-819.3512573242188	581.88330078125	502.4237060546875	-368.1178283691406	483.2716979980469	757.184814453125	-393.0392150878906	713.4539184570312	29.55858993530273	-319.5002746582031	627.6781005859375	397.5458374023438	-344.12548828125	794.0313110351562	122.053108215332	-148.5735778808594	825.0540771484375	101.9270095825195	-208.0859375	713.3181762695312	63.53922653198242	-213.2420806884766	751.796142578125	19.45280838012695	-392.9873352050781	
